<?xml version="1.0" encoding="UTF-8"?>
<svg width="19px" height="19px" viewBox="0 0 19 19" version="1.1" xmlns="http://www.w3.org/2000/svg" xmlns:xlink="http://www.w3.org/1999/xlink">
    <!-- Generator: Sketch 58 (84663) - https://sketch.com -->
    <title>download</title>
    <desc>Created with Sketch.</desc>
    <defs>
        <polygon id="path-1" points="0.0241725 0.0112358974 10.9049256 0.0112358974 10.9049256 13.7308853 0.0241725 13.7308853"></polygon>
    </defs>
    <g id="Page-1" stroke="none" stroke-width="1" fill="none" fill-rule="evenodd">
        <g id="sidebar" transform="translate(-1386.000000, -645.000000)">
            <g id="download" transform="translate(1386.000000, 645.000000)">
                <g>
                    <path d="M18.2089966,12 C17.7708462,12 17.4179932,12.3499965 17.4179932,12.7845998 L17.4179932,17.4269323 L1.58204229,17.4269323 L1.58204229,12.7845998 C1.58204229,12.3499965 1.22918925,12 0.791038872,12 C0.352853041,12 0,12.3499965 0,12.7845998 L0,18.2154002 C0,18.6500035 0.352853041,19 0.791038872,19 L18.2089966,19 C18.647147,19 19,18.6500035 19,18.2154002 L19,12.7845998 C19,12.3499965 18.647147,12 18.2089966,12" id="Fill-1" fill="#393C50"></path>
                    <g id="Group-5" transform="translate(4.000000, 0.000000)">
                        <mask id="mask-2" fill="white">
                            <use xlink:href="#path-1"></use>
                        </mask>
                        <g id="Clip-4"></g>
                        <path d="M4.92314281,13.4901451 C5.34048969,13.9102528 5.84050844,13.6943297 6.00970219,13.4901451 L10.6793397,8.61764256 C10.9801209,8.30354 10.9801209,7.79702718 10.6793397,7.48292462 C10.3785584,7.16882205 9.89356156,7.16882205 9.59278031,7.48292462 L6.23155844,10.989099 L6.23155844,0.812175897 C6.23155844,0.368519487 5.88938969,0.0112323077 5.46454906,0.0112323077 C5.03970844,0.0112323077 4.69757406,0.368519487 4.69757406,0.812175897 L4.69757406,10.9851862 L1.33631781,7.47901179 C1.03553656,7.16490923 0.550539687,7.16490923 0.249758438,7.47901179 C-0.0510228125,7.79311436 -0.0510228125,8.29959128 0.249758438,8.61369385 L4.92314281,13.4901451 Z" id="Fill-3" fill="#393C50" mask="url(#mask-2)"></path>
                    </g>
                </g>
            </g>
        </g>
    </g>
</svg>