<?xml version="1.0" encoding="UTF-8"?>
<svg width="22px" height="22px" viewBox="0 0 22 22" version="1.1" xmlns="http://www.w3.org/2000/svg" xmlns:xlink="http://www.w3.org/1999/xlink">
    <!-- Generator: Sketch 58 (84663) - https://sketch.com -->
    <title>search</title>
    <desc>Created with Sketch.</desc>
    <g id="Symbols" stroke="none" stroke-width="1" fill="none" fill-rule="evenodd">
        <g id="search-bar" transform="translate(-317.000000, -16.000000)" fill="#FFFFFF" stroke="#FFFFFF">
            <g id="search">
                <g transform="translate(318.000000, 17.000000)">
                    <path d="M1.19315759,8.52771429 C1.19315759,4.48335714 4.48435211,1.19732143 8.52517724,1.19732143 C12.5703962,1.19732143 15.8571612,4.48778571 15.8571612,8.52771429 C15.8571612,12.5676429 12.5703962,15.8625357 8.52517724,15.8625357 C4.48435211,15.8625357 1.19315759,12.5720714 1.19315759,8.52771429 M19.8270063,18.9800357 L14.9656062,14.1197143 C16.2696813,12.6208571 17.0592136,10.6651786 17.0592136,8.52771429 C17.0592136,3.82260714 13.2312928,0 8.52960679,0 C3.82345547,0 0,3.82703571 0,8.52771429 C0,13.2283929 3.82788503,17.0554286 8.52960679,17.0554286 C10.6675454,17.0554286 12.6236223,16.2660714 14.1228478,14.9623214 L18.9842478,19.8226071 C19.0995591,19.9379286 19.2548079,20 19.4056271,20 C19.5564462,20 19.711695,19.9423571 19.8270063,19.8226071 C20.0576646,19.592 20.0576646,19.2106429 19.8270063,18.9800357" id="Fill-1"></path>
                </g>
            </g>
        </g>
    </g>
</svg>